<svg xmlns="http://www.w3.org/2000/svg" viewBox="0 0 1024 1024" role="img" aria-labelledby="title desc">
  <title id="title">GeoQibla</title>
  <desc id="desc">A compass ring with a Qibla pointer and Kaaba center mark.</desc>
  <defs>
    <linearGradient id="bg" x1="128" y1="96" x2="896" y2="928" gradientUnits="userSpaceOnUse">
      <stop offset="0" stop-color="#053238"/>
      <stop offset="0.58" stop-color="#096B58"/>
      <stop offset="1" stop-color="#0A7C66"/>
    </linearGradient>
    <radialGradient id="glow" cx="50%" cy="38%" r="60%">
      <stop offset="0" stop-color="#FFFFFF" stop-opacity="0.18"/>
      <stop offset="1" stop-color="#FFFFFF" stop-opacity="0"/>
    </radialGradient>
    <filter id="shadow" x="-20%" y="-20%" width="140%" height="140%">
      <feDropShadow dx="0" dy="24" stdDeviation="30" flood-color="#031C20" flood-opacity="0.35"/>
    </filter>
  </defs>
  <rect width="1024" height="1024" rx="224" fill="url(#bg)"/>
  <rect width="1024" height="1024" rx="224" fill="url(#glow)"/>
  <g fill="none" stroke="#DDF8ED" stroke-linecap="round" stroke-linejoin="round" filter="url(#shadow)">
    <circle cx="512" cy="512" r="338" stroke-width="42"/>
    <circle cx="512" cy="512" r="222" stroke-width="18" opacity="0.42"/>
    <path d="M512 124v72M512 828v72M124 512h72M828 512h72" stroke-width="32"/>
    <path d="M238 238l50 50M736 736l50 50M786 238l-50 50M288 736l-50 50" stroke-width="22" opacity="0.72"/>
  </g>
  <g filter="url(#shadow)">
    <path d="M512 512 701 228 632 582Z" fill="#F4C95D"/>
    <path d="M512 512 323 796 392 442Z" fill="#DDF8ED"/>
    <path d="M512 512 701 228 392 442Z" fill="#FFFFFF" opacity="0.18"/>
    <path d="M512 512 323 796 632 582Z" fill="#001F22" opacity="0.2"/>
  </g>
  <g filter="url(#shadow)">
    <path d="M423 476h178a28 28 0 0 1 28 28v128a28 28 0 0 1-28 28H423a28 28 0 0 1-28-28V504a28 28 0 0 1 28-28Z" fill="#061E23"/>
    <path d="M395 535h234v36H395z" fill="#F4C95D"/>
    <path d="M448 476h42v184h-42zM534 476h42v184h-42z" fill="#FFFFFF" opacity="0.08"/>
  </g>
</svg>
